<svg width="24" height="24" viewBox="0 0 24 24" fill="none" xmlns="http://www.w3.org/2000/svg">
<path fill-rule="evenodd" clip-rule="evenodd" d="M5.50464 6.38449V13.0731C6.84694 12.3216 9.28623 11.9198 12.4766 13.4699C15.538 14.9573 17.6632 14.2978 18.5032 13.7695V6.41382C17.1587 7.02827 15.0542 7.27573 12.3446 6.1583C9.28829 4.89788 6.66226 5.71909 5.50464 6.38449ZM5.50464 14.8664C5.62348 14.833 5.73573 14.7697 5.82954 14.6766C6.30926 14.2005 8.36927 13.1421 11.8205 14.819C15.738 16.7224 18.663 15.6751 19.7528 14.7044C19.9125 14.5621 20.0039 14.3583 20.0039 14.1444V4.98635C20.0039 4.67358 19.8097 4.39364 19.5167 4.28397C19.2236 4.1743 18.8932 4.25792 18.6877 4.49378C18.2489 4.99739 16.3247 6.17704 12.917 4.77169C8.98488 3.15009 5.59199 4.44458 4.3146 5.36779C4.11947 5.50882 4.00391 5.73487 4.00391 5.97555V19.25C4.00391 19.6642 4.33986 20 4.75427 20C5.16869 20 5.50464 19.6642 5.50464 19.25V14.8664Z" fill="#17181C"/>
</svg>
