<svg width="24" height="24" viewBox="0 0 24 24" fill="none" xmlns="http://www.w3.org/2000/svg">
<path fill-rule="evenodd" clip-rule="evenodd" d="M5.75103 5.22126C5.45814 4.92836 4.98327 4.92836 4.69037 5.22126C4.39748 5.51415 4.39748 5.98902 4.69037 6.28192L6.3257 7.91724C4.86195 8.99122 3.85077 10.2797 3.28642 11.1179C2.92388 11.6564 2.92873 12.3407 3.29662 12.8756C4.44159 14.5402 7.37593 17.9968 12.0004 17.9968C13.3611 17.9968 14.5755 17.6975 15.6411 17.2326L17.6904 19.2819C17.9833 19.5748 18.4581 19.5748 18.751 19.2819C19.0439 18.989 19.0439 18.5142 18.751 18.2213L5.75103 5.22126ZM13.1713 14.7629L9.23749 10.829C9.08481 11.1888 9.00036 11.5845 9.00036 12C9.00036 13.6569 10.3435 15 12.0004 15C12.4158 15 12.8116 14.9155 13.1713 14.7629Z" fill="#17181C"/>
<path d="M15.0004 12C15.0004 12.1433 14.9903 12.2843 14.9709 12.4223L18.1911 15.6425C19.364 14.6697 20.2044 13.602 20.7041 12.8756C21.072 12.3407 21.0768 11.6564 20.7143 11.1179C19.592 9.45088 16.7024 6.00317 12.0004 6.00317C10.9165 6.00317 9.92903 6.18635 9.03725 6.48867L11.5781 9.02949C11.716 9.01005 11.857 9 12.0004 9C13.6572 9 15.0004 10.3431 15.0004 12Z" fill="#17181C"/>
</svg>
