<svg width="24" height="24" viewBox="0 0 24 24" fill="none" xmlns="http://www.w3.org/2000/svg">
<path fill-rule="evenodd" clip-rule="evenodd" d="M12 21C16.9706 21 21 16.9706 21 12C21 7.02944 16.9706 3 12 3C7.02944 3 3 7.02944 3 12C3 16.9706 7.02944 21 12 21ZM12.7358 7.98004C12.7358 7.56583 12.4001 7.23004 11.9858 7.23004C11.5716 7.23004 11.2358 7.56583 11.2358 7.98004V12.9644C11.2358 13.1633 11.3149 13.3541 11.4555 13.4947L13.7304 15.7696C14.0233 16.0625 14.4981 16.0625 14.791 15.7696C15.0839 15.4767 15.0839 15.0019 14.791 14.709L12.7358 12.6538V7.98004Z" fill="#17181C"/>
</svg>
